REM DIRINDEX 1\3,1\2\4,1\2\5,1\2\6
REM DIRNAME cjc137,folder01,folder02,folder03,folder04,folder05
TITLE ""
FILE "083.mp3" MP3
  TRACK 01 AUDIO
    TITLE "4:cjc137_3405"
    INDEX 01 00:00:00
  TRACK 02 AUDIO
    TITLE "0:"
    INDEX 01 00:01:21
  TRACK 03 AUDIO
    TITLE "6:cjc137_3406"
    INDEX 01 00:01:22
  TRACK 04 AUDIO
    TITLE "0:"
    INDEX 01 00:02:36
  TRACK 05 AUDIO
    TITLE "5:cjc137_3407"
    INDEX 01 00:02:40
  TRACK 06 AUDIO
    TITLE "0:"
    INDEX 01 00:03:59
  TRACK 07 AUDIO
    TITLE "4:cjc137_3408"
    INDEX 01 00:04:66
  TRACK 08 AUDIO
    TITLE "0:"
    INDEX 01 00:06:06
  TRACK 09 AUDIO
    TITLE "6:cjc137_3409"
    INDEX 01 00:06:12
  TRACK 10 AUDIO
    TITLE "0:"
    INDEX 01 00:07:27
  TRACK 11 AUDIO
    TITLE "5:cjc137_3410"
    INDEX 01 00:07:31
  TRACK 12 AUDIO
    TITLE "0:"
    INDEX 01 00:08:48
  TRACK 13 AUDIO
    TITLE "4:cjc137_3411"
    INDEX 01 00:09:55
  TRACK 14 AUDIO
    TITLE "0:"
    INDEX 01 00:11:15
  TRACK 15 AUDIO
    TITLE "6:cjc137_3412"
    INDEX 01 00:11:19
  TRACK 16 AUDIO
    TITLE "0:"
    INDEX 01 00:12:32
  TRACK 17 AUDIO
    TITLE "5:cjc137_3413"
    INDEX 01 00:12:40
  TRACK 18 AUDIO
    TITLE "0:"
    INDEX 01 00:13:71
  TRACK 19 AUDIO
    TITLE "4:cjc137_3414"
    INDEX 01 00:15:05
  TRACK 20 AUDIO
    TITLE "0:"
    INDEX 01 00:16:24
  TRACK 21 AUDIO
    TITLE "6:cjc137_3415"
    INDEX 01 00:16:34
  TRACK 22 AUDIO
    TITLE "0:"
    INDEX 01 00:17:39
  TRACK 23 AUDIO
    TITLE "5:cjc137_3416"
    INDEX 01 00:17:47
  TRACK 24 AUDIO
    TITLE "0:"
    INDEX 01 00:18:66
  TRACK 25 AUDIO
    TITLE "4:cjc137_3417"
    INDEX 01 00:20:02
  TRACK 26 AUDIO
    TITLE "0:"
    INDEX 01 00:21:17
  TRACK 27 AUDIO
    TITLE "6:cjc137_3418"
    INDEX 01 00:21:23
  TRACK 28 AUDIO
    TITLE "0:"
    INDEX 01 00:22:42
  TRACK 29 AUDIO
    TITLE "5:cjc137_3419"
    INDEX 01 00:22:48
  TRACK 30 AUDIO
    TITLE "0:"
    INDEX 01 00:23:63
  TRACK 31 AUDIO
    TITLE "4:cjc137_3420"
    INDEX 01 00:24:72
  TRACK 32 AUDIO
    TITLE "0:"
    INDEX 01 00:26:05
  TRACK 33 AUDIO
    TITLE "6:cjc137_3421"
    INDEX 01 00:26:13
  TRACK 34 AUDIO
    TITLE "0:"
    INDEX 01 00:27:51
  TRACK 35 AUDIO
    TITLE "5:cjc137_3422"
    INDEX 01 00:27:59
  TRACK 36 AUDIO
    TITLE "0:"
    INDEX 01 00:28:68
  TRACK 37 AUDIO
    TITLE "4:cjc137_3423"
    INDEX 01 00:30:01
  TRACK 38 AUDIO
    TITLE "0:"
    INDEX 01 00:31:00
  TRACK 39 AUDIO
    TITLE "6:cjc137_3424"
    INDEX 01 00:31:10
  TRACK 40 AUDIO
    TITLE "0:"
    INDEX 01 00:31:69
  TRACK 41 AUDIO
    TITLE "5:cjc137_3425"
    INDEX 01 00:31:73
  TRACK 42 AUDIO
    TITLE "0:"
    INDEX 01 00:32:74
  TRACK 43 AUDIO
    TITLE "4:cjc137_3426"
    INDEX 01 00:34:10
  TRACK 44 AUDIO
    TITLE "0:"
    INDEX 01 00:35:25
  TRACK 45 AUDIO
    TITLE "6:cjc137_3427"
    INDEX 01 00:35:29
  TRACK 46 AUDIO
    TITLE "0:"
    INDEX 01 00:36:48
  TRACK 47 AUDIO
    TITLE "5:cjc137_3428"
    INDEX 01 00:36:54
  TRACK 48 AUDIO
    TITLE "0:"
    INDEX 01 00:37:69
  TRACK 49 AUDIO
    TITLE "4:cjc137_3429"
    INDEX 01 00:39:02
  TRACK 50 AUDIO
    TITLE "0:"
    INDEX 01 00:40:03
  TRACK 51 AUDIO
    TITLE "6:cjc137_3430"
    INDEX 01 00:40:11
  TRACK 52 AUDIO
    TITLE "0:"
    INDEX 01 00:41:04
  TRACK 53 AUDIO
    TITLE "5:cjc137_3431"
    INDEX 01 00:41:08
  TRACK 54 AUDIO
    TITLE "0:"
    INDEX 01 00:42:08
  TRACK 55 AUDIO
    TITLE "4:cjc137_3432"
    INDEX 01 00:43:21
  TRACK 56 AUDIO
    TITLE "0:"
    INDEX 01 00:44:26
  TRACK 57 AUDIO
    TITLE "6:cjc137_3433"
    INDEX 01 00:44:38
  TRACK 58 AUDIO
    TITLE "0:"
    INDEX 01 00:45:24
  TRACK 59 AUDIO
    TITLE "5:cjc137_3434"
    INDEX 01 00:45:30
  TRACK 60 AUDIO
    TITLE "0:"
    INDEX 01 00:46:35
  TRACK 61 AUDIO
    TITLE "4:cjc137_3435"
    INDEX 01 00:47:46
  TRACK 62 AUDIO
    TITLE "0:"
    INDEX 01 00:48:44
  TRACK 63 AUDIO
    TITLE "6:cjc137_3436"
    INDEX 01 00:48:53
  TRACK 64 AUDIO
    TITLE "0:"
    INDEX 01 00:49:39
  TRACK 65 AUDIO
    TITLE "5:cjc137_3437"
    INDEX 01 00:49:43
  TRACK 66 AUDIO
    TITLE "0:"
    INDEX 01 00:50:42
  TRACK 67 AUDIO
    TITLE "4:cjc137_3438"
    INDEX 01 00:51:52
  TRACK 68 AUDIO
    TITLE "0:"
    INDEX 01 00:52:57
  TRACK 69 AUDIO
    TITLE "6:cjc137_3439"
    INDEX 01 00:52:67
  TRACK 70 AUDIO
    TITLE "0:"
    INDEX 01 00:53:68
  TRACK 71 AUDIO
    TITLE "5:cjc137_3440"
    INDEX 01 00:53:74
  TRACK 72 AUDIO
    TITLE "0:"
    INDEX 01 00:55:06
  TRACK 73 AUDIO
    TITLE "4:cjc137_3441"
    INDEX 01 00:56:16
  TRACK 74 AUDIO
    TITLE "0:"
    INDEX 01 00:57:23
  TRACK 75 AUDIO
    TITLE "6:cjc137_3442"
    INDEX 01 00:57:46
  TRACK 76 AUDIO
    TITLE "0:"
    INDEX 01 00:58:62
  TRACK 77 AUDIO
    TITLE "5:cjc137_3443"
    INDEX 01 00:58:67
  TRACK 78 AUDIO
    TITLE "0:"
    INDEX 01 01:00:00
  TRACK 79 AUDIO
    TITLE "4:cjc137_3444"
    INDEX 01 01:01:25
  TRACK 80 AUDIO
    TITLE "0:"
    INDEX 01 01:02:30
  TRACK 81 AUDIO
    TITLE "6:cjc137_3445"
    INDEX 01 01:02:38
  TRACK 82 AUDIO
    TITLE "0:"
    INDEX 01 01:03:37
  TRACK 83 AUDIO
    TITLE "5:cjc137_3446"
    INDEX 01 01:03:43
  TRACK 84 AUDIO
    TITLE "0:"
    INDEX 01 01:04:50
